<svg xmlns="http://www.w3.org/2000/svg" viewBox="200 0 800 800" role="img" aria-label="North Macedonia Guidebook — flag of North Macedonia"><defs><clipPath id="r"><rect x="200" y="0" width="800" height="800" rx="150"/></clipPath></defs><g clip-path="url(#r)"><rect x="200" y="0" width="800" height="800" fill="#D20000"/><g fill="#FFE600"><polygon points="749.4,358.6 1428.7,170.2 1428.7,629.8 749.4,441.4"/><polygon points="734.9,476.3 1348.5,823.5 1023.5,1148.5 676.3,534.9"/><polygon points="641.4,549.4 829.8,1228.7 370.2,1228.7 558.6,549.4"/><polygon points="523.7,534.9 176.5,1148.5 -148.5,823.5 465.1,476.3"/><polygon points="450.6,441.4 -228.7,629.8 -228.7,170.2 450.6,358.6"/><polygon points="465.1,323.7 -148.5,-23.5 176.5,-348.5 523.7,265.1"/><polygon points="558.6,250.6 370.2,-428.7 829.8,-428.7 641.4,250.6"/><polygon points="676.3,265.1 1023.5,-348.5 1348.5,-23.5 734.9,323.7"/><circle cx="600" cy="400" r="155"/></g></g></svg>
